<svg width="29" height="29" viewBox="0 0 29 29" fill="none" xmlns="http://www.w3.org/2000/svg">
<path d="M24.9219 3.17188H4.07812C3.57686 3.17188 3.17188 3.57686 3.17188 4.07812V24.9219C3.17188 25.4231 3.57686 25.8281 4.07812 25.8281H24.9219C25.4231 25.8281 25.8281 25.4231 25.8281 24.9219V4.07812C25.8281 3.57686 25.4231 3.17188 24.9219 3.17188ZM22.3051 9.78467H20.4954C19.0766 9.78467 18.8019 10.4587 18.8019 11.4499V13.6334H22.189L21.7472 17.0517H18.8019V25.8281H15.2703V17.0545H12.3165V13.6334H15.2703V11.1129C15.2703 8.1874 17.0573 6.59297 19.6685 6.59297C20.9202 6.59297 21.9936 6.68643 22.3079 6.72891V9.78467H22.3051Z" fill="white"/>
</svg>
