<svg width="32" height="32" viewBox="0 0 32 32" fill="none" xmlns="http://www.w3.org/2000/svg">
<path d="M16.0001 11.8343C13.7064 11.8343 11.8345 13.7062 11.8345 15.9999C11.8345 18.2937 13.7064 20.1655 16.0001 20.1655C18.2939 20.1655 20.1658 18.2937 20.1658 15.9999C20.1658 13.7062 18.2939 11.8343 16.0001 11.8343ZM28.4939 15.9999C28.4939 14.2749 28.5095 12.5655 28.4127 10.8437C28.3158 8.84367 27.8595 7.06867 26.397 5.60617C24.9314 4.14054 23.1595 3.68742 21.1595 3.59054C19.4345 3.49367 17.7251 3.50929 16.0033 3.50929C14.2783 3.50929 12.5689 3.49367 10.847 3.59054C8.84702 3.68742 7.07202 4.14367 5.60952 5.60617C4.1439 7.07179 3.69077 8.84367 3.5939 10.8437C3.49702 12.5687 3.51265 14.278 3.51265 15.9999C3.51265 17.7218 3.49702 19.4343 3.5939 21.1562C3.69077 23.1562 4.14702 24.9312 5.60952 26.3937C7.07515 27.8593 8.84702 28.3124 10.847 28.4093C12.572 28.5062 14.2814 28.4905 16.0033 28.4905C17.7283 28.4905 19.4376 28.5062 21.1595 28.4093C23.1595 28.3124 24.9345 27.8562 26.397 26.3937C27.8627 24.928 28.3158 23.1562 28.4127 21.1562C28.5127 19.4343 28.4939 17.7249 28.4939 15.9999ZM16.0001 22.4093C12.4533 22.4093 9.59077 19.5468 9.59077 15.9999C9.59077 12.453 12.4533 9.59054 16.0001 9.59054C19.547 9.59054 22.4095 12.453 22.4095 15.9999C22.4095 19.5468 19.547 22.4093 16.0001 22.4093ZM22.672 10.8249C21.8439 10.8249 21.1751 10.1562 21.1751 9.32804C21.1751 8.49992 21.8439 7.83117 22.672 7.83117C23.5002 7.83117 24.1689 8.49992 24.1689 9.32804C24.1691 9.52468 24.1306 9.71944 24.0555 9.90116C23.9803 10.0829 23.8701 10.248 23.731 10.387C23.592 10.5261 23.4269 10.6363 23.2451 10.7115C23.0634 10.7866 22.8687 10.8252 22.672 10.8249Z" fill="white"/>
</svg>
