<svg width="24" height="27" viewBox="0 0 24 27" fill="none" xmlns="http://www.w3.org/2000/svg">
<path d="M21.4286 1.6875H2.57143C1.15179 1.6875 0 2.82129 0 4.21875V22.7812C0 24.1787 1.15179 25.3125 2.57143 25.3125H21.4286C22.8482 25.3125 24 24.1787 24 22.7812V4.21875C24 2.82129 22.8482 1.6875 21.4286 1.6875ZM18.8089 10.0617C18.8196 10.2094 18.8196 10.3623 18.8196 10.51C18.8196 15.082 15.2839 20.3502 8.82321 20.3502C6.83036 20.3502 4.98214 19.7807 3.42857 18.7998C3.7125 18.8314 3.98571 18.842 4.275 18.842C5.91964 18.842 7.43036 18.2936 8.63571 17.3654C7.09286 17.3338 5.79643 16.3371 5.35179 14.966C5.89286 15.0451 6.38036 15.0451 6.9375 14.9027C5.33036 14.5811 4.125 13.1889 4.125 11.5066V11.4645C4.59107 11.7229 5.1375 11.8811 5.71071 11.9021C5.2288 11.5866 4.83374 11.1585 4.56079 10.6561C4.28784 10.1537 4.14548 9.5926 4.14643 9.02285C4.14643 8.37949 4.31786 7.78887 4.62321 7.27734C6.35357 9.37617 8.95179 10.7473 11.8661 10.8949C11.3679 8.54824 13.1518 6.64453 15.2946 6.64453C16.3071 6.64453 17.2179 7.06113 17.8607 7.73613C18.6536 7.58848 19.4143 7.29844 20.0893 6.90293C19.8268 7.70449 19.275 8.37949 18.5464 8.80664C19.2536 8.73281 19.9393 8.5377 20.5714 8.26875C20.0946 8.95957 19.4946 9.57129 18.8089 10.0617Z" fill="white"/>
</svg>
